# xmcd CD database file
#
# Track frame offsets:
#	182
#	16042
#	31777
#	74192
#	104305
#	122725
#	142547
#	166457
#	195025
#	237217
#	249022
#
# Disc length: 3433 seconds
#
# Revision: 0
# Processed by: cddbd v1.4PL0 Copyright (c) Steve Scherf et al.
# Submitted via: CDex 1.50Beta7
#
DISCID=7c0d670b
DTITLE=Duke Jordan Torio - Live In Japan Vol . 2
DYEAR=1900
DGENRE=Jazz
TTITLE0=Tow Loves
TTITLE1=In My Solitude
TTITLE2=No Problem
TTITLE3=Cold Bordeaux Blues
TTITLE4=Tall Grass
TTITLE5=I'm Gonna Learn Your Style
TTITLE6=Embraceable You
TTITLE7=Night Train From Snekkersten
TTITLE8=Cherokee
TTITLE9=Jordu
TTITLE10=Flight To Japan
EXTD=
EXTT0=
EXTT1=
EXTT2=
EXTT3=
EXTT4=
EXTT5=
EXTT6=
EXTT7=
EXTT8=
EXTT9=
EXTT10=
PLAYORDER=
